<svg width="24" height="24" viewBox="0 0 24 24" fill="none" xmlns="http://www.w3.org/2000/svg">
<g clip-path="url(#clip0_7_596)">
<path d="M17.25 11.125H12.875V6.75C12.875 6.267 12.483 5.875 12 5.875C11.517 5.875 11.125 6.267 11.125 6.75V11.125H6.75C6.267 11.125 5.875 11.517 5.875 12C5.875 12.483 6.267 12.875 6.75 12.875H11.125V17.25C11.125 17.733 11.517 18.125 12 18.125C12.483 18.125 12.875 17.733 12.875 17.25V12.875H17.25C17.733 12.875 18.125 12.483 18.125 12C18.125 11.517 17.733 11.125 17.25 11.125Z" fill="#1C1D1E"/>
</g>
<defs>
<clipPath id="clip0_7_596">
<rect width="14" height="14" fill="white" transform="translate(5 5)"/>
</clipPath>
</defs>
</svg>
