<svg width="24" height="24" viewBox="0 0 24 24" fill="none" xmlns="http://www.w3.org/2000/svg">
<path d="M12.9801 12L16.4101 8.57002C16.5379 8.43962 16.6091 8.26405 16.6082 8.08147C16.6073 7.89889 16.5343 7.72405 16.4052 7.59494C16.2761 7.46584 16.1013 7.3929 15.9187 7.39198C15.7361 7.39105 15.5605 7.46222 15.4301 7.59002L12.0001 11.02L8.57014 7.59002C8.43974 7.46222 8.26417 7.39105 8.08159 7.39198C7.89901 7.3929 7.72417 7.46584 7.59506 7.59494C7.46596 7.72405 7.39302 7.89889 7.3921 8.08147C7.39118 8.26405 7.46235 8.43962 7.59014 8.57002L11.0201 12L7.59014 15.43C7.46235 15.5604 7.39118 15.736 7.3921 15.9186C7.39302 16.1011 7.46596 16.276 7.59506 16.4051C7.72417 16.5342 7.89901 16.6071 8.08159 16.6081C8.26417 16.609 8.43974 16.5378 8.57014 16.41L12.0001 12.98L15.4301 16.41C15.5605 16.5378 15.7361 16.609 15.9187 16.6081C16.1013 16.6071 16.2761 16.5342 16.4052 16.4051C16.5343 16.276 16.6073 16.1011 16.6082 15.9186C16.6091 15.736 16.5379 15.5604 16.4101 15.43L12.9801 12Z" fill="#3D3D3D"/>
</svg>
