<svg width="24" height="24" viewBox="0 0 24 24" fill="none" xmlns="http://www.w3.org/2000/svg">
<path fill-rule="evenodd" clip-rule="evenodd" d="M7.66569 9.10658H16.3336L15.7864 16.1049C15.7576 16.4822 15.7322 16.8921 15.6923 17.2839C15.6569 17.6319 15.6808 18.16 15.3032 18.16H8.75679C8.27648 18.16 8.36383 17.6804 8.31963 17.3643C8.2542 16.896 8.18742 15.6205 8.12498 15.0129L8.02941 13.8355C8.01782 13.3592 7.88763 12.0324 7.84531 11.4734C7.81644 11.0931 7.77531 10.697 7.7564 10.2891C7.73837 9.90061 7.66569 9.52632 7.66569 9.10666V9.10658ZM6.81709 7.8621C6.81709 7.63811 7.03747 7.45764 7.27168 7.45764H16.7276C17.2983 7.45764 17.3491 8.26656 16.7579 8.26656H7.18074C6.98116 8.26656 6.81702 8.07074 6.81702 7.8621H6.81709ZM9.9994 6.33767C9.9994 6.07522 10.1196 5.83986 10.3631 5.83986H13.6364C14.0362 5.83986 14.0001 6.35056 14.0001 6.61762H9.99947V6.33759L9.9994 6.33767ZM9.18109 6.33767V6.6177H7.30204C6.90197 6.6177 6.62528 6.74543 6.40102 6.93726C5.66183 7.56963 6.029 8.85595 6.81709 9.0444L6.93629 10.3842C6.97159 10.8623 6.99597 11.3035 7.03119 11.7802L7.20924 13.8374C7.27542 14.7227 7.38355 15.7298 7.42325 16.5733C7.43245 16.7687 7.47231 17.0621 7.48293 17.2587C7.50977 17.7545 7.52824 18.1689 7.75168 18.4762C7.95576 18.7569 8.22646 19 8.69615 19H15.3032C15.7587 19 16.0343 18.7678 16.2346 18.4938C16.6053 17.9867 16.5186 16.6125 16.6192 15.902L16.8484 13.1816C16.8907 12.3037 17.0174 11.3351 17.0616 10.4139L17.1823 9.0444C17.9431 8.86247 18.3461 7.61769 17.6147 6.95169C17.3965 6.75303 17.0992 6.61778 16.6974 6.61778H14.8184C14.8184 6.14668 14.8185 5.75181 14.5083 5.41168C14.3252 5.21087 14.0616 5 13.697 5H10.3026C9.69871 5 9.18116 5.57856 9.18116 6.33782L9.18109 6.33767Z" fill="#1C1D1E"/>
<path fill-rule="evenodd" clip-rule="evenodd" d="M14.4242 9.91512C14.0149 9.91512 13.9667 10.2379 13.9696 10.5995L13.6985 14.9257C13.6823 15.1338 13.6962 15.4152 13.6622 15.7284L13.6011 16.7554C13.5817 16.9244 13.56 17.0291 13.6519 17.1791C13.8034 17.4265 14.4205 17.5879 14.4253 16.7295C14.4288 16.1 14.5762 14.7715 14.5748 14.1764C14.5739 13.7352 14.6835 12.6562 14.6962 12.1232C14.6996 11.9814 14.7165 11.9905 14.7257 11.8734C14.7327 11.7832 14.7219 11.687 14.729 11.5968C14.7551 11.2615 14.7675 10.9344 14.7879 10.5681C14.7986 10.3752 14.8478 10.2951 14.7577 10.1327C14.7057 10.0389 14.5666 9.91504 14.4242 9.91504V9.91512Z" fill="#1C1D1E"/>
<path fill-rule="evenodd" clip-rule="evenodd" d="M9.63564 9.91504C9.11316 9.91504 9.20215 10.4031 9.21142 10.5681C9.23183 10.9344 9.24417 11.2615 9.27035 11.5968L9.33338 12.6209C9.33473 12.8375 9.36434 12.9229 9.36352 13.1189C9.36098 13.7159 9.51136 15.0862 9.51525 15.701C9.51637 15.8794 9.56498 17.0121 9.65329 17.177C9.77503 17.4044 10.1581 17.4661 10.3351 17.1975C10.4314 17.0514 10.4121 16.9517 10.3954 16.7583L10.119 11.8767C10.098 11.607 10.0152 10.2282 9.96946 10.1324C9.92579 10.041 9.77099 9.91504 9.63572 9.91504H9.63564Z" fill="#1C1D1E"/>
<path fill-rule="evenodd" clip-rule="evenodd" d="M11.6056 10.2572V17.0084C11.6056 17.4883 12.3937 17.4883 12.3937 17.0084V10.2572C12.3937 9.80618 11.6056 9.80618 11.6056 10.2572Z" fill="#1C1D1E"/>
</svg>
