<svg width="24" height="24" viewBox="0 0 24 24" fill="none" xmlns="http://www.w3.org/2000/svg">
<path fill-rule="evenodd" clip-rule="evenodd" d="M6.0277 17.9834C6.03619 17.8816 6.05051 17.8612 6.08385 17.774C6.32799 17.136 6.6244 16.0577 6.87079 15.4078C6.92786 15.2572 6.95394 15.1322 7.01234 14.9852C7.06123 14.8619 7.14326 14.6669 7.15472 14.5301L9.48341 16.8462C9.33142 16.8577 9.15571 16.9294 9.03451 16.9775C8.87915 17.0393 8.76173 17.0692 8.60903 17.1158L6.0276 17.9834H6.0277ZM10.2046 16.4228L8.88692 15.1195C8.75027 14.9826 7.62725 13.9217 7.58582 13.7664L14.2241 7.10026C14.6134 7.35721 14.9068 7.75872 15.2217 8.07683L16.2236 9.06559C16.3253 9.15093 16.8679 9.65223 16.8679 9.74854C16.8679 9.84023 16.3924 10.2825 16.2785 10.3868L16.0644 10.6039C15.9205 10.7512 15.7955 10.8725 15.6496 11.0186C15.5753 11.0931 15.5249 11.1431 15.4509 11.218L13.9922 12.679C13.8405 12.8309 13.7122 12.9579 13.5614 13.1108C13.4772 13.196 13.4278 13.2257 13.3494 13.2968L11.483 15.1796C11.3536 15.2808 11.3918 15.2751 11.2908 15.3855C11.1652 15.5228 10.324 16.391 10.2048 16.4229L10.2046 16.4228ZM18.1937 7.85564C18.1937 8.31267 18.0495 8.67402 17.7157 8.93743C17.6145 9.01723 17.5634 9.08557 17.4976 9.18392L14.8206 6.51926C14.905 6.38904 15.0602 6.26036 15.1848 6.1366C15.3349 5.98753 15.4686 5.9067 15.6777 5.83344C16.5107 5.54207 17.0997 6.37798 17.6053 6.8844C17.8555 7.13499 18.1937 7.46304 18.1937 7.85564ZM5.0001 18.6143C5.0001 19.3169 5.90804 18.8675 6.23114 18.7516C6.33515 18.7143 6.42557 18.6976 6.53797 18.6605L9.09107 17.7978C9.43135 17.6683 10.3055 17.4656 10.5122 17.2621C12.9451 14.867 15.4172 12.3468 17.8374 9.9227C18.4831 9.27593 19.3153 8.62146 18.8784 7.30271C18.8426 7.19462 18.82 7.14022 18.7682 7.04781C18.6004 6.74865 18.6449 6.85704 18.4783 6.64097L17.9367 6.08763C17.8589 6.0029 17.8347 6.01222 17.7631 5.92944C17.1663 5.23871 16.7463 5 15.8402 5C15.6508 5 15.375 5.08739 15.2286 5.15122C14.7293 5.36893 14.3748 5.82023 13.992 6.20371C11.5993 8.60046 9.11183 11.0488 6.74775 13.4582C6.60016 13.6087 6.57837 13.7555 6.50432 13.9782L5.36023 17.4146C5.29037 17.6239 5 18.4619 5 18.6145L5.0001 18.6143Z" fill="#1C1D1E"/>
</svg>
